<?xml version="1.0" encoding="utf-8" ?><svg xmlns="http://www.w3.org/2000/svg" xmlns:xlink="http://www.w3.org/1999/xlink" width="1024" height="1024" viewBox="0 0 1024 1024"><path fill="#F9F8F6" d="M0 0L1024 0L1024 1024L0 1024L0 0Z"/><path fill="#F24C1F" d="M494.373 230.22C516.98 228.524 537.005 230.875 559.003 232.8C618.949 238.045 673.753 248.196 720.808 288.594C770.211 331.008 786.733 388.248 792.068 451.208C798.421 526.184 793.35 611.496 743.275 671.993C716.09 704.836 682.586 725.535 641.643 736.022C629.465 739.141 608.158 744.802 597.507 749.89C589.108 753.902 573.121 768.055 564.707 774.535C533.691 798.645 496.377 811.632 457.349 814.627C442.031 815.802 424.587 817.309 423.295 795.771C422.261 778.52 441.307 779.53 452.987 775.26C462.827 771.661 473.174 767.615 482.252 762.158C497.321 753.219 510.294 741.386 522.235 728.663C535.639 714.206 543.327 701.618 560.968 691.544C602.855 667.624 644.495 673.989 680.913 636.636C708.34 608.505 716.07 575.345 720.067 537.891C721.714 523.36 722.558 508.749 722.595 494.125C722.729 454.101 717.224 403.623 696.751 368.398C691.599 359.534 686.414 353.37 679.276 346.188C677.023 344.064 674.714 342.001 672.351 340.001C663.05 332.123 652.081 325.559 640.827 320.893C593.562 301.298 519.237 298.668 468.86 302.995C421.71 307.045 369.953 315.57 337.895 354.053C301.723 397.474 298.781 479.365 303.864 533.256C309.078 588.527 326.919 639.649 382.505 662.803C398.382 669.417 415.82 672.539 432.472 676.553C443.925 679.314 458.275 680.499 467.483 688.265C473.729 693.533 477.857 700.869 478.51 709.087C479.202 717.792 475.875 726.54 470.18 733.073C463.964 740.204 455.538 744.799 446.029 745.348C435.193 745.975 423.019 743.486 412.352 741.625C372.938 734.747 334.38 723.376 303.994 696.097C266.195 662.164 244.854 618 236.816 568.24C235.251 558.55 234.609 548.753 233.667 538.991C232.723 529.209 231.46 519.409 230.944 509.594C229.827 488.313 231.552 467.303 233.698 446.148C235.241 430.939 236.761 415.509 239.789 400.518C246.778 365.912 262.371 331.664 286.214 305.366C340.695 245.272 417.368 234.061 494.373 230.22Z"/><path fill="#F24C1F" d="M510.466 345.23L510.917 345.218C554.833 344.304 602.879 359.985 635.184 390.372C664.064 417.293 678.982 454.657 679.375 493.907C680.322 588.307 602.696 641.511 515.279 642.151C468.172 641.238 424.964 630.881 388.926 598.414C361.272 572.956 346.147 538.628 345.009 501.266C341.933 400.325 417.182 348.466 510.466 345.23Z"/><path fill="#F9F8F6" d="M506.515 386.076C507.591 385.972 508.67 385.9 509.751 385.86C516.2 385.663 523.359 389.714 527.894 394.155C537.385 403.45 538.691 412.43 539.062 424.974C576.19 424.951 605.193 447.243 605.377 486.001C605.396 504.443 598.143 522.148 585.191 535.277C569.259 551.156 552.853 555.02 531.267 555.042C530.753 556.841 530.18 558.623 529.55 560.384C524.129 575.528 515.901 590.087 500.736 597.985C490.619 603.254 470.65 600.58 476.633 584.805C478.306 580.394 490.46 572.13 494.065 567.209C499.11 560.32 502.092 555.357 505.714 547.387C492.814 538.82 482.188 527.472 478.4 511.984C474.895 497.657 488.327 487.787 497.205 501.633C501.812 508.817 505.292 514.444 512.149 519.653C512.554 515.401 512.87 511.141 513.096 506.876C514.308 493.452 514.436 467.316 514.296 453.157C486.107 463.077 469.05 487.993 461.89 516.062C459.787 522.969 459.957 537.334 453.788 541.993C439.663 552.661 431.121 531.544 428.876 522.119C422.029 493.374 429.678 467.162 430.93 438.637C430.773 436.66 430.802 431.445 430.056 429.752C425.711 419.894 421.186 407.351 437.84 408.834C443.834 409.368 449.109 415.258 452.87 420.292C463.463 434.472 459.975 446.99 456.057 462.723C454.208 469.891 452.675 477.138 451.463 484.441C455.233 479.251 458.477 473.851 462.544 468.726C477.661 449.672 491.658 439.154 513.899 430.445C513.209 424.596 512.549 418.612 510.451 413.077C507.078 404.179 490.332 392.175 506.515 386.076Z"/><path fill="#F24C1F" d="M540.04 446.992C540.398 446.985 540.756 446.983 541.114 446.985C580.733 447.285 588.124 491.501 562.35 516.816C554.148 523.974 547.352 526.434 536.798 528.049C540.458 499.247 540.829 476.216 540.04 446.992Z"/></svg>