<?xml version="1.0" encoding="utf-8" ?><svg xmlns="http://www.w3.org/2000/svg" xmlns:xlink="http://www.w3.org/1999/xlink" width="1548" height="308" viewBox="222 838 1548 308"><path fill="#D4531A" fill-opacity="0.98431373" transform="scale(0.96875 0.96875)" d="M1316.53 922.551L1318.23 922.692C1334.07 924.118 1384.36 923.087 1400.33 921.459C1400.29 924.988 1399.28 931.525 1399.93 933.847L1400.83 934.433C1401.87 932.824 1402.91 931.259 1403.86 929.597L1405.96 929.448C1407.5 936.706 1408.42 937.347 1410.63 943.953L1412.56 945.174C1410.69 954.988 1408.61 964.762 1406.32 974.488C1431.38 973.967 1461.77 972.739 1486.55 972.958C1488.56 969.539 1489.54 966.783 1493.05 965.271C1502.05 964.921 1508.28 972.403 1511.62 980.013C1510.39 983.131 1505.99 984.892 1502.88 986.538C1492.94 1016.93 1478.31 1038.31 1459.31 1063.1C1467.86 1071.04 1476.87 1078.14 1487.04 1083.94C1479.24 1084.32 1482.2 1085.18 1476.11 1087.44L1475.92 1089.37C1481.04 1091.99 1484.86 1091.91 1488.25 1095.43C1488.88 1099.68 1487.12 1100.09 1483.76 1102.59C1470.91 1094.41 1459.08 1084.72 1448.52 1073.74C1420.91 1096.61 1406.59 1104.99 1372.31 1118.55C1369.19 1118.68 1367.23 1118.95 1364.16 1118.18C1367.93 1115.71 1369.39 1114.67 1372.26 1111.23C1397.89 1098.44 1421.56 1084.4 1440.01 1061.91C1420.96 1042.24 1413.85 1015.45 1400.66 993.284C1397.12 1001.54 1394.82 1011.12 1390.77 1020.25C1373.97 1058.08 1344.79 1104.61 1308.12 1125.08C1310.73 1119.15 1333.68 1095.1 1340.32 1085.89C1373.03 1040.54 1388.52 985.607 1398.84 931.096C1375.85 931.021 1351.07 931.134 1328.16 932.456L1316.53 922.551ZM1439.8 1043.68L1447.8 1054.11C1462.88 1032.57 1477.3 1006.24 1485.08 981.065C1474.1 980.793 1464.21 981.135 1453.26 981.526C1438.32 981.939 1421.07 982.258 1406.26 983.617C1402.18 987.978 1409.42 993.106 1411.99 998.163C1420.28 1014.5 1428.74 1029.06 1439.8 1043.68Z"/><path fill="#D4531A" transform="scale(0.96875 0.96875)" d="M1492.63 975.878C1495.25 975.416 1501.42 978.665 1504.34 979.946C1503.2 982.249 1504.17 978.577 1499.87 981.582L1496.14 985.489C1492.55 986.41 1494.34 986.393 1490.58 985.241C1488.52 981.999 1489.07 983.719 1488.88 979.888L1492.63 975.878Z"/><path fill="#D4531A" transform="scale(0.96875 0.96875)" d="M1388.08 1007.55C1390.76 1010.78 1390.5 1016.53 1387.65 1019.56L1385.87 1016.89C1385.17 1013.35 1386.67 1011 1388.08 1007.55Z"/><path fill="#CE5019" transform="scale(0.96875 0.96875)" d="M1402.4 943.244L1405.03 945.168C1406.47 949.441 1405.83 950.769 1405.03 955.412C1401.38 951.453 1402.11 948.293 1402.4 943.244Z"/><path fill="#D4531A" transform="scale(0.96875 0.96875)" d="M607.808 940.123L623.496 940.496C624.162 969.594 622.639 999.229 623.251 1028.19C623.726 1050.7 618.392 1077.46 635.676 1094.41C653.973 1112.27 682.251 1108.69 699.517 1091.22C718.25 1072.26 713.863 1048.78 713.851 1023.93L713.904 941.552C718.81 941.435 723.919 941.486 728.844 941.461C728.272 953.149 728.475 965.971 728.43 977.75L728.487 1065.93C728.488 1074.52 729.057 1105.81 727.26 1113.06C721.561 1117.58 713.681 1114.05 713.856 1107.94C714.083 1099.96 714.342 1091.09 714.488 1083.11C702.006 1106.79 681.655 1122.8 653.495 1117.79C601.621 1108.54 608.058 1065.99 607.964 1027.05L607.808 940.123Z"/><path fill="#CE5019" transform="scale(0.96875 0.96875)" d="M614.66 942.236C615.992 942.931 616.141 943.171 617.316 944.124C618.242 949.479 618.405 955.243 616.306 960.334C613.554 956.115 613.94 947.14 614.66 942.236Z"/><path fill="#CE5019" transform="scale(0.96875 0.96875)" d="M724.158 993.276C725.648 996.306 724.919 1003.47 722.185 1006.27C720.599 1001.52 719.935 999.61 721.771 995.246C723.648 994.786 722.755 995.22 724.158 993.276Z"/><path fill="#D4531A" transform="scale(0.96875 0.96875)" d="M421.318 940.53C426.057 940.386 431.151 940.433 435.929 940.39L435.868 1027.69C435.845 1055.66 429.127 1093.16 464.355 1103.82C489.997 1111.57 516.193 1095.91 525.244 1071.78C526.362 1068.8 527.429 1062.55 528.469 1058.95C527.267 1053.61 527.604 1023.6 527.75 1016.16C528.235 991.45 527.293 965.204 528.064 940.66L542.636 941.124C542.009 972.98 541.793 1004.84 541.989 1036.7C542.008 1053.09 542.522 1072.06 541.898 1088.09C542.481 1094.01 542.057 1107.84 542.049 1114.34C537.331 1114.81 532.973 1114.52 528.241 1114.38C527.932 1105.45 528.185 1094.29 528.165 1085.22C513.858 1106 498.399 1117.77 472.238 1118.27C459.274 1118.55 446.757 1113.53 437.575 1104.37C416.658 1083.55 421.793 1054.51 421.775 1027.24C421.881 998.338 421.728 969.432 421.318 940.53Z"/><path fill="#CE5019" transform="scale(0.96875 0.96875)" d="M426.54 975.37L428.478 977.338C429.549 981.886 430.525 984.555 432.166 988.951L432.235 988.2L434.039 994.697L433.487 995.65L430.895 994.076C428.526 999.244 428.769 1019.56 430.4 1025.25L427.345 1035.57C428.057 1019.98 426.813 991.769 426.54 975.37Z"/><path fill="#CE5019" transform="scale(0.96875 0.96875)" d="M534.644 1022.47L537.34 1024.44C539.961 1029.44 537.912 1035.01 536.64 1040.43L535.113 1039.18C533.642 1034.64 534.293 1027.32 534.644 1022.47Z"/><path fill="#D4531A" transform="scale(0.96875 0.96875)" d="M977.976 973.677C988.581 957.861 1003.72 940.775 1023.46 938.606C1086.59 931.671 1085.87 974.897 1086.03 1017.88C1086.01 1041.44 1086.18 1065 1086.53 1088.55C1086.73 1096.28 1088.83 1108.92 1084.58 1114.12C1081.21 1116.18 1076.62 1115.45 1072.86 1114.57C1071.61 1108.69 1072.01 1093.43 1071.99 1086.84L1072.05 1025.57C1072.13 999.016 1076.82 955.917 1041.83 950.02C1011.29 944.874 984.037 962.849 977.264 993.181C978.358 998.554 978.108 1001.74 978.054 1007.17C978.065 1041.14 979.148 1082.14 977.871 1115.54C973.258 1115.61 968.053 1115.82 963.497 1115.59L963.225 941.962L979.143 941.873C977.433 952.876 977.791 962.581 977.976 973.677Z"/><path fill="#CE5019" transform="scale(0.96875 0.96875)" d="M978.054 1007.17C976.195 1011.33 971.684 1012.82 971.81 1018.22C971.904 1022.26 971.57 1022.29 968.466 1024.1L966.619 1023.46C965.835 1019.28 967.295 996.157 969.588 993.081L970.208 998.803C972.587 992.208 971.151 992.15 975.742 987.795C977.019 989.324 976.863 990.87 977.264 993.181C978.358 998.554 978.108 1001.74 978.054 1007.17Z"/><path fill="#D4531A" fill-opacity="0.98823529" transform="scale(0.96875 0.96875)" d="M231.735 873.462C236.403 873.771 242.175 873.586 246.936 873.563C251.514 884.325 258.023 894.174 264.013 904.282C274.978 922.762 286.13 941.13 297.467 959.384C305.292 972.242 312.626 983.055 317.404 997.34C341.391 956.16 365.64 915.133 390.149 874.262C395.031 873.944 400.02 873.124 404.5 874.695C404.474 876.299 363.502 944.526 359.103 950.94C356.298 957.601 330.034 1000.29 325.117 1006.39C323.216 1038.39 324.402 1082.61 324.367 1115.46C319.79 1115.76 314.837 1115.57 310.223 1115.51C309.907 1092.69 309.831 1069.88 309.993 1047.06C309.996 1039.85 310.485 1013.21 308.793 1008.23C302.072 990.996 291.144 977.01 281.616 960.826C265.042 932.672 247.429 904.186 230.029 876.696C229.363 875.643 230.978 874.359 231.735 873.462Z"/><path fill="#CE5019" transform="scale(0.96875 0.96875)" d="M316.534 1039.26C318.5 1040.4 319.752 1040.62 320.526 1042.25C323.142 1047.75 323.852 1057.28 322.276 1063.17L321.747 1061.24C322.448 1056.09 322.595 1055.67 320.705 1051.13C319.423 1053.58 319.305 1053.94 317.544 1056.03L316.102 1054.96C315.222 1052.59 316.52 1043.48 316.534 1039.26Z"/><path fill="#CE5019" transform="scale(0.96875 0.96875)" d="M319.031 1068.19C320.903 1068.7 319.953 1068.27 321.781 1069.69C322.044 1074.22 322.567 1084.91 320.072 1088.29L318.71 1087.75C318.388 1081.37 317.427 1074.19 319.031 1068.19Z"/><path fill="#D4531A" transform="scale(0.96875 0.96875)" d="M1677.5 870.346C1685.66 872.69 1704.73 876.969 1709.12 883.293C1709.03 886.247 1709.47 884.874 1707.1 887.262C1706.34 887.411 1702.97 888.103 1702.78 888.304C1698.51 892.779 1698.58 917.115 1697.24 924.782C1709.05 977.606 1728.08 1036.92 1768.85 1074.49C1768.73 1083.5 1763.59 1084.43 1763.27 1089.92L1761.62 1091.08C1723.72 1053.4 1706.08 990.572 1694.79 939.728C1692.5 948.825 1691.25 959.328 1688.92 969.232C1686.29 981.478 1682.96 993.565 1678.95 1005.43C1672.55 1002.4 1677.31 1002.17 1673.16 1001.66C1671.25 1004.84 1668.71 1010.55 1665.98 1012.03C1663.47 1010.72 1664.55 1011.61 1663.15 1008.83C1668.42 992.515 1671.69 977.964 1675.19 961.244C1677.11 950.055 1678.77 938.822 1680.15 927.554C1681.36 905.708 1686.7 890.987 1677.5 870.346Z"/><path fill="#CE5019" transform="scale(0.96875 0.96875)" d="M1677.5 870.346C1685.66 872.69 1704.73 876.969 1709.12 883.293C1709.03 886.247 1709.47 884.874 1707.1 887.262C1706.34 887.411 1702.97 888.103 1702.78 888.304C1698.51 892.779 1698.58 917.115 1697.24 924.782C1694.87 918.262 1698.67 901.83 1693.17 894.613C1692.14 893.268 1692.42 887.692 1692.33 885.654L1691.01 884.588C1687.51 889.404 1687.7 915.733 1685.49 922.988C1685.35 923.461 1681.08 926.982 1680.15 927.554C1681.36 905.708 1686.7 890.987 1677.5 870.346Z"/><path fill="#D4531A" transform="scale(0.96875 0.96875)" d="M796.323 941.092L811.079 940.949C811.674 953.053 811.163 968.735 811.103 981.045L810.717 1056.01L810.446 1107.66C810.225 1142.16 810.96 1177.08 766.615 1182.01C761.651 1181.63 749.824 1177.52 751.955 1171.43C757.197 1167.25 770.501 1168.06 778.659 1167.21C799.735 1152.61 795.279 1135.08 795.788 1113.41C797.123 1056.55 793.705 997.758 796.323 941.092Z"/><path fill="#CE5019" transform="scale(0.96875 0.96875)" d="M799.303 1071.44C803.599 1073.81 801.228 1094.8 800.956 1100.29L799.77 1099.8C798.866 1091.18 799.243 1080.28 799.303 1071.44Z"/><path fill="#D4531A" transform="scale(0.96875 0.96875)" d="M1400.94 913.121C1402.1 901.412 1405.63 879.726 1400.44 869.902C1403.99 865.425 1410.55 870.122 1415.09 871.615C1419.68 873.127 1424.69 874.683 1428.59 877.521L1429.48 879.653C1427.36 881.676 1426.67 882.043 1424.26 883.62C1421.49 888.885 1418.01 914.917 1417.34 922.082C1445.98 921.858 1483.72 922.257 1511.79 920.252C1517.19 916.651 1520.95 911.872 1525.25 907.009C1530.81 910.903 1546.05 920.826 1548.02 926.347C1546.68 928.349 1546.65 928.199 1544.4 928.628C1519.24 933.433 1428.08 925.175 1414.21 932.503C1414.18 937.95 1413.64 939.93 1412.56 945.174L1410.63 943.953C1408.42 937.347 1407.5 936.706 1405.96 929.448L1403.86 929.597C1402.91 931.259 1401.87 932.824 1400.83 934.433L1399.93 933.847C1399.28 931.525 1400.29 924.988 1400.33 921.459C1400.28 918.436 1400.61 916.097 1400.94 913.121Z"/><path fill="#CE5019" transform="scale(0.96875 0.96875)" d="M1406 881.026C1413.09 882.908 1411.3 888.248 1411.16 894.369C1412.32 896.354 1412.72 897.432 1413.59 899.575L1411.39 900.78L1409.12 899.463C1405.27 893.958 1405.92 887.61 1406 881.026Z"/><path fill="#D4531A" transform="scale(0.96875 0.96875)" d="M880.02 941.436C884.398 940.931 890.643 940.901 895.182 940.741C894.168 957.82 895.365 1111.55 891.789 1114.92C886.775 1115.09 883.271 1115.84 879.723 1112.64C878.876 1100.21 879.35 1083.9 879.369 1071.22L879.483 1000.06C879.489 991.483 878.775 946.11 880.02 941.436Z"/><path fill="#CE5019" transform="scale(0.96875 0.96875)" d="M887.029 991.441L888.899 992.603C891.713 999.529 888.4 1017.97 887.192 1025.45C885.534 1022.13 886.055 996.309 887.029 991.441Z"/><path fill="#FAEEDD" fill-opacity="0.3137255" transform="scale(0.96875 0.96875)" d="M1673.52 867.006C1682.16 869.544 1711.84 875.14 1710.47 885.726C1707.15 889.71 1707.94 888.36 1702.36 890.545C1701.29 901.751 1699.51 914.785 1700.24 925.913C1700.99 937.448 1705.37 949.557 1708.5 960.593C1718.76 996.526 1732.94 1029.95 1756.93 1059.12C1767.95 1072.52 1781 1082.88 1795.73 1092.45C1804.18 1097.94 1815.63 1103.36 1824.66 1108.34C1825.12 1109.23 1825.59 1110.12 1826.06 1111.01C1824.93 1112.68 1824.87 1113.24 1821.95 1113.55C1810.03 1114.78 1804.09 1118.24 1793.71 1123.94C1747.32 1088.99 1721.08 1042.52 1704.24 987.642C1700.32 974.854 1698.26 963.103 1694.88 950.698C1682.47 1018.52 1659.83 1072.25 1601.17 1114.2C1595.87 1117.99 1591.04 1120.77 1584.78 1122.57L1588.73 1119.61C1630.04 1096.58 1665.14 1050.46 1678.95 1005.43C1682.96 993.565 1686.29 981.478 1688.92 969.232C1691.25 959.328 1692.5 948.825 1694.79 939.728C1706.08 990.572 1723.72 1053.4 1761.62 1091.08C1765.15 1095.88 1769.01 1099.69 1773.13 1103.97C1780.6 1110.87 1785.82 1115.46 1793.91 1121.64C1806.95 1113.93 1811.62 1112.51 1826.33 1110.97C1815.78 1106.4 1808.28 1102.11 1798.31 1096.47C1786.41 1089.17 1779.31 1083.4 1768.85 1074.49C1728.08 1036.92 1709.05 977.606 1697.24 924.782C1698.58 917.115 1698.51 892.779 1702.78 888.304C1702.97 888.103 1706.34 887.411 1707.1 887.262C1709.47 884.874 1709.03 886.247 1709.12 883.293C1704.73 876.969 1685.66 872.69 1677.5 870.346C1686.7 890.987 1681.36 905.708 1680.15 927.554C1678.77 938.822 1677.11 950.055 1675.19 961.244C1671.69 977.964 1668.42 992.515 1663.15 1008.83C1649.58 1043.82 1639.38 1066.54 1612.2 1094.19C1606.46 1100.04 1593.22 1110.61 1589.27 1114.92L1584.84 1115.62C1655.44 1058.65 1673.92 989.515 1680.31 902.409C1681.39 887.654 1680.33 880.243 1673.52 867.006Z"/><path fill="#CE5019" fill-opacity="0.98431373" transform="scale(0.96875 0.96875)" d="M1663.15 1008.83C1664.55 1011.61 1663.47 1010.72 1665.98 1012.03C1668.71 1010.55 1671.25 1004.84 1673.16 1001.66C1677.31 1002.17 1672.55 1002.4 1678.95 1005.43C1665.14 1050.46 1630.04 1096.58 1588.73 1119.61L1586.72 1118.43L1589.27 1114.92C1593.22 1110.61 1606.46 1100.04 1612.2 1094.19C1639.38 1066.54 1649.58 1043.82 1663.15 1008.83Z"/><path fill="#D4531A" transform="scale(0.96875 0.96875)" d="M1487.04 1083.94C1493.02 1087.46 1496.36 1089.13 1502.72 1091.92L1511.13 1095.91C1523.07 1100.42 1534.67 1104.97 1547.32 1106.71C1551.26 1107.25 1557.37 1107.94 1560.2 1110.69C1558.59 1112.23 1532.46 1123.55 1527.7 1126.1C1513.78 1119.17 1496.53 1111.09 1483.76 1102.59C1487.12 1100.09 1488.88 1099.68 1488.25 1095.43C1484.86 1091.91 1481.04 1091.99 1475.92 1089.37L1476.11 1087.44C1482.2 1085.18 1479.24 1084.32 1487.04 1083.94Z"/><path fill="#CE5019" transform="scale(0.96875 0.96875)" d="M1502.72 1091.92L1511.13 1095.91L1504.09 1096.34L1503.64 1097.48L1505.09 1099.28C1505.16 1099.36 1505.23 1099.45 1505.31 1099.53L1503.56 1100.8C1500.93 1100.89 1501.12 1100.91 1498.78 1099.68L1498.72 1098.29C1501.41 1095.83 1501.85 1095.68 1502.72 1091.92Z"/><path fill="#D4531A" transform="scale(0.96875 0.96875)" d="M1768.85 1074.49C1779.31 1083.4 1786.41 1089.17 1798.31 1096.47C1808.28 1102.11 1815.78 1106.4 1826.33 1110.97C1811.62 1112.51 1806.95 1113.93 1793.91 1121.64C1785.82 1115.46 1780.6 1110.87 1773.13 1103.97C1769.01 1099.69 1765.15 1095.88 1761.62 1091.08L1763.27 1089.92C1763.59 1084.43 1768.73 1083.5 1768.85 1074.49Z"/><path fill="#CE5019" transform="scale(0.96875 0.96875)" d="M1768.85 1074.49C1779.31 1083.4 1786.41 1089.17 1798.31 1096.47C1788.68 1100.45 1789.2 1103.68 1779.05 1096.94C1775.49 1097.1 1773.92 1100.78 1773.13 1103.97C1769.01 1099.69 1765.15 1095.88 1761.62 1091.08L1763.27 1089.92C1763.59 1084.43 1768.73 1083.5 1768.85 1074.49Z"/><path fill="#CE5019" transform="scale(0.96875 0.96875)" d="M1209.05 991.399C1215.9 990.726 1222.04 995.586 1222.97 1002.4C1223.9 1009.21 1219.27 1015.54 1212.49 1016.71C1207.88 1017.51 1203.2 1015.73 1200.29 1012.07C1197.38 1008.4 1196.71 1003.44 1198.54 999.132C1200.36 994.823 1204.4 991.857 1209.05 991.399Z"/><path fill="#D4531A" transform="scale(0.96875 0.96875)" d="M800.208 879.911C801.887 879.797 803.592 879.67 805.278 879.764C808.502 879.972 811.477 881.567 813.434 884.138C819.047 891.433 814.774 899.179 808.288 903.891C791.746 906.576 787.521 888.159 800.208 879.911Z"/><path fill="#D4531A" transform="scale(0.96875 0.96875)" d="M883.208 879.911C884.887 879.797 886.592 879.67 888.278 879.764C891.502 879.972 894.477 881.567 896.434 884.138C902.047 891.433 897.774 899.179 891.288 903.891C874.746 906.576 870.521 888.159 883.208 879.911Z"/><path fill="#CE5019" fill-opacity="0.78823531" transform="scale(0.96875 0.96875)" d="M1372.31 1118.55C1367.7 1120.73 1348.02 1128.03 1343.99 1124.94C1347.7 1119.67 1365.48 1113.78 1372.26 1111.23C1369.39 1114.67 1367.93 1115.71 1364.16 1118.18C1367.23 1118.95 1369.19 1118.68 1372.31 1118.55Z"/><path fill="#D4531A" fill-opacity="0.80000001" transform="scale(0.96875 0.96875)" d="M1584.84 1115.62L1589.27 1114.92L1586.72 1118.43L1588.73 1119.61L1584.78 1122.57C1581.38 1124.59 1577.53 1127.33 1573.53 1125.99C1575.14 1122.6 1581.6 1118.15 1584.84 1115.62Z"/></svg>